<svg xmlns="http://www.w3.org/2000/svg" xmlns:xlink="http://www.w3.org/1999/xlink" width="500" zoomAndPan="magnify" viewBox="0 0 375 374.999991" height="500" preserveAspectRatio="xMidYMid meet" version="1.0"><defs><g/><clipPath id="634fb15ad8"><path d="M 200 168 L 209.996094 168 L 209.996094 194.953125 L 200 194.953125 Z M 200 168 " clip-rule="nonzero"/></clipPath><clipPath id="50bd8b66b8"><path d="M 183 150 L 209.996094 150 L 209.996094 194.953125 L 183 194.953125 Z M 183 150 " clip-rule="nonzero"/></clipPath></defs><g clip-path="url(#634fb15ad8)"><path fill="#100f0d" d="M 203.492188 168.039062 C 201.613281 168.039062 200.082031 169.574219 200.082031 171.457031 C 200.082031 187.621094 199.574219 188.199219 201.605469 189.574219 L 208.253906 194.898438 L 209.46875 195.050781 C 209.636719 195.078125 209.816406 194.949219 209.816406 194.730469 L 209.816406 168.039062 L 203.492188 168.039062 " fill-opacity="1" fill-rule="nonzero"/></g><g clip-path="url(#50bd8b66b8)"><path fill="#100f0d" d="M 196.125 157.449219 C 199.710938 157.449219 199.730469 162.902344 196.125 162.902344 C 192.515625 162.902344 192.53125 157.449219 196.125 157.449219 Z M 197.734375 171.457031 C 197.734375 168.285156 200.3125 165.6875 203.492188 165.6875 L 209.363281 165.6875 C 207.914062 162.925781 202.621094 162.9375 203.050781 159.433594 C 203.371094 156.839844 202.863281 154.769531 200.25 154.738281 C 197.984375 154.738281 197.007812 153.019531 194.828125 150.421875 C 194.359375 150.6875 184.261719 156.539062 183.777344 156.78125 C 186.296875 157.484375 188.1875 157.691406 189.214844 159.777344 C 190.96875 163.320312 190.957031 167.542969 189.191406 171.085938 C 189.191406 171.109375 185.917969 179.183594 185.917969 185.859375 C 185.917969 188.414062 186.390625 190.414062 187.320312 191.800781 C 187.898438 192.652344 188.195312 192.386719 203.792969 194.335938 C 196.554688 188.542969 197.734375 192.089844 197.734375 171.457031 " fill-opacity="1" fill-rule="nonzero"/></g><path fill="#100f0d" d="M 200.300781 132.503906 C 192.082031 140.648438 182.425781 147.039062 170.023438 151.238281 C 171.28125 153.386719 173.296875 154.917969 175.699219 155.566406 C 180.484375 156.851562 182.046875 155.082031 197.363281 146.242188 C 201.492188 143.847656 203.777344 138.5625 200.300781 132.503906 " fill-opacity="1" fill-rule="nonzero"/><path fill="#100f0d" d="M 199.085938 130.390625 L 195.28125 123.792969 C 188.054688 130.84375 175.789062 138.546875 164.9375 142.421875 L 168.820312 149.152344 C 180.851562 145.183594 190.71875 138.828125 199.085938 130.390625 " fill-opacity="1" fill-rule="nonzero"/><path fill="#100f0d" d="M 194.066406 121.691406 L 190.492188 115.496094 C 183.273438 122.679688 166.554688 131.316406 160.078125 134 L 163.746094 140.347656 C 174.671875 136.515625 187.070312 128.695312 194.066406 121.691406 " fill-opacity="1" fill-rule="nonzero"/><path fill="#100f0d" d="M 189.273438 113.382812 L 185.671875 107.128906 C 184.148438 109.09375 181.757812 111.109375 179.742188 112.621094 L 179.742188 112.632812 C 171.972656 118.371094 162.058594 123.15625 154.925781 125.050781 L 158.890625 131.933594 C 165.78125 129.132812 182.667969 120.269531 189.273438 113.382812 " fill-opacity="1" fill-rule="nonzero"/><path fill="#100f0d" d="M 179.167969 110.09375 C 181.707031 108.101562 183.527344 106.277344 184.371094 104.871094 C 181.660156 100.21875 176.738281 99.015625 172.773438 100.527344 C 175.621094 103.007812 177.875 106.289062 179.167969 110.09375 " fill-opacity="1" fill-rule="nonzero"/><path fill="#100f0d" d="M 170.730469 115.667969 C 173.054688 114.332031 175.257812 112.941406 177.203125 111.558594 C 175.871094 107.578125 173.871094 104.363281 170.476562 101.691406 L 163.671875 105.621094 C 166.890625 108.089844 169.382812 111.5 170.730469 115.667969 " fill-opacity="1" fill-rule="nonzero"/><path fill="#100f0d" d="M 168.632812 116.84375 C 167.421875 112.738281 164.9375 109.320312 161.417969 106.917969 C 156.949219 109.503906 153.695312 110.730469 152.460938 115.277344 C 151.695312 118.183594 152.320312 120.570312 153.699219 122.9375 C 158.730469 121.691406 164.023438 119.265625 168.632812 116.84375 " fill-opacity="1" fill-rule="nonzero"/><path stroke-linecap="butt" transform="matrix(0.75, 0, 0, 0.75, 151.497446, 190.905223)" fill="none" stroke-linejoin="miter" d="M -0.00180267 2.50137 L 92.75862 2.50137 " stroke="#000000" stroke-width="5" stroke-opacity="1" stroke-miterlimit="4"/><path stroke-linecap="butt" transform="matrix(0.75, 0, 0, 0.75, 132.857091, 199.615753)" fill="none" stroke-linejoin="miter" d="M -0.00216297 2.501912 L 130.773887 2.501912 " stroke="#000000" stroke-width="5" stroke-opacity="1" stroke-miterlimit="4"/><path stroke-linecap="butt" transform="matrix(0.75, 0, 0, 0.75, 120.134337, 207.965319)" fill="none" stroke-linejoin="miter" d="M -0.00203215 2.499366 L 161.471937 2.499366 " stroke="#000000" stroke-width="5" stroke-opacity="1" stroke-miterlimit="4"/><g fill="#000000" fill-opacity="1"><g transform="translate(123.049951, 249.652704)"><g><path d="M 16.0625 -5.046875 L 7.53125 -5.046875 L 5.421875 0 L 0.421875 0 L 12.046875 -26.78125 L 12.3125 -26.78125 L 23.9375 0 L 18.0625 0 Z M 14.390625 -9.3125 L 11.90625 -15.578125 L 9.3125 -9.3125 Z M 14.390625 -9.3125 "/></g></g></g><g fill="#000000" fill-opacity="1"><g transform="translate(149.189428, 249.652704)"><g><path d="M 7.875 -9.515625 C 7.875 -8.703125 8.117188 -7.921875 8.609375 -7.171875 C 9.097656 -6.429688 9.75 -5.828125 10.5625 -5.359375 C 11.382812 -4.890625 12.257812 -4.65625 13.1875 -4.65625 C 14.195312 -4.65625 15.117188 -4.890625 15.953125 -5.359375 C 16.796875 -5.828125 17.457031 -6.429688 17.9375 -7.171875 C 18.414062 -7.921875 18.65625 -8.703125 18.65625 -9.515625 L 18.65625 -25.765625 L 23.65625 -25.765625 L 23.65625 -9.421875 C 23.65625 -7.578125 23.1875 -5.910156 22.25 -4.421875 C 21.320312 -2.941406 20.054688 -1.785156 18.453125 -0.953125 C 16.859375 -0.128906 15.101562 0.28125 13.1875 0.28125 C 11.28125 0.28125 9.53125 -0.128906 7.9375 -0.953125 C 6.351562 -1.785156 5.097656 -2.941406 4.171875 -4.421875 C 3.253906 -5.910156 2.796875 -7.578125 2.796875 -9.421875 L 2.796875 -25.765625 L 7.875 -25.765625 Z M 7.875 -9.515625 "/></g></g></g><g fill="#000000" fill-opacity="1"><g transform="translate(177.428426, 249.652704)"><g><path d="M 3.328125 -25.765625 L 11.03125 -25.765625 C 14.3125 -25.765625 17.015625 -25.125 19.140625 -23.84375 C 21.265625 -22.570312 22.8125 -20.925781 23.78125 -18.90625 C 24.75 -16.894531 25.234375 -14.734375 25.234375 -12.421875 C 25.234375 -9.953125 24.648438 -7.769531 23.484375 -5.875 C 22.316406 -3.988281 20.742188 -2.535156 18.765625 -1.515625 C 16.796875 -0.503906 14.632812 0 12.28125 0 L 3.328125 0 Z M 11.40625 -4.90625 C 14.039062 -4.90625 16.128906 -5.578125 17.671875 -6.921875 C 19.210938 -8.273438 19.984375 -10.226562 19.984375 -12.78125 C 19.984375 -14.832031 19.554688 -16.460938 18.703125 -17.671875 C 17.859375 -18.890625 16.867188 -19.726562 15.734375 -20.1875 C 14.597656 -20.65625 13.53125 -20.890625 12.53125 -20.890625 L 8.40625 -20.890625 L 8.40625 -4.90625 Z M 11.40625 -4.90625 "/></g></g></g><g fill="#000000" fill-opacity="1"><g transform="translate(206.192308, 249.652704)"><g><path d="M 8.40625 -25.765625 L 8.40625 0 L 3.328125 0 L 3.328125 -25.765625 Z M 8.40625 -25.765625 "/></g></g></g><g fill="#000000" fill-opacity="1"><g transform="translate(219.699637, 249.652704)"><g><path d="M 1.75 -12.84375 C 1.75 -15.175781 2.335938 -17.359375 3.515625 -19.390625 C 4.691406 -21.421875 6.289062 -23.035156 8.3125 -24.234375 C 10.332031 -25.441406 12.519531 -26.046875 14.875 -26.046875 C 17.226562 -26.046875 19.414062 -25.441406 21.4375 -24.234375 C 23.457031 -23.035156 25.066406 -21.421875 26.265625 -19.390625 C 27.460938 -17.359375 28.0625 -15.175781 28.0625 -12.84375 C 28.0625 -10.46875 27.460938 -8.273438 26.265625 -6.265625 C 25.066406 -4.253906 23.457031 -2.660156 21.4375 -1.484375 C 19.414062 -0.304688 17.226562 0.28125 14.875 0.28125 C 12.5 0.28125 10.304688 -0.304688 8.296875 -1.484375 C 6.285156 -2.660156 4.691406 -4.253906 3.515625 -6.265625 C 2.335938 -8.273438 1.75 -10.46875 1.75 -12.84375 Z M 7 -12.84375 C 7 -11.351562 7.351562 -9.976562 8.0625 -8.71875 C 8.78125 -7.457031 9.75 -6.457031 10.96875 -5.71875 C 12.195312 -4.988281 13.554688 -4.625 15.046875 -4.625 C 16.492188 -4.625 17.8125 -4.988281 19 -5.71875 C 20.195312 -6.457031 21.128906 -7.445312 21.796875 -8.6875 C 22.472656 -9.9375 22.8125 -11.320312 22.8125 -12.84375 C 22.8125 -14.382812 22.460938 -15.785156 21.765625 -17.046875 C 21.066406 -18.304688 20.113281 -19.300781 18.90625 -20.03125 C 17.707031 -20.769531 16.375 -21.140625 14.90625 -21.140625 C 13.4375 -21.140625 12.097656 -20.769531 10.890625 -20.03125 C 9.691406 -19.300781 8.742188 -18.304688 8.046875 -17.046875 C 7.347656 -15.785156 7 -14.382812 7 -12.84375 Z M 7 -12.84375 "/></g></g></g><g fill="#000000" fill-opacity="1"><g transform="translate(142.061461, 271.647873)"><g><path d="M 0.453125 -0.859375 L 1.125 -0.859375 C 1.226562 -0.859375 1.328125 -0.867188 1.421875 -0.890625 C 1.523438 -0.910156 1.613281 -0.953125 1.6875 -1.015625 C 1.769531 -1.078125 1.832031 -1.171875 1.875 -1.296875 C 1.914062 -1.429688 1.9375 -1.601562 1.9375 -1.8125 L 1.9375 -9.609375 C 1.9375 -9.816406 1.914062 -9.984375 1.875 -10.109375 C 1.832031 -10.242188 1.769531 -10.34375 1.6875 -10.40625 C 1.613281 -10.476562 1.523438 -10.523438 1.421875 -10.546875 C 1.328125 -10.566406 1.226562 -10.578125 1.125 -10.578125 L 0.453125 -10.578125 L 0.453125 -11.421875 L 5.609375 -11.421875 C 7.117188 -11.421875 8.222656 -11.164062 8.921875 -10.65625 C 9.628906 -10.15625 9.984375 -9.425781 9.984375 -8.46875 C 9.984375 -8.039062 9.921875 -7.660156 9.796875 -7.328125 C 9.671875 -7.003906 9.503906 -6.71875 9.296875 -6.46875 C 9.097656 -6.226562 8.867188 -6.023438 8.609375 -5.859375 C 8.347656 -5.691406 8.082031 -5.550781 7.8125 -5.4375 L 9.71875 -2.15625 C 9.851562 -1.925781 9.984375 -1.726562 10.109375 -1.5625 C 10.234375 -1.40625 10.359375 -1.269531 10.484375 -1.15625 C 10.617188 -1.050781 10.753906 -0.972656 10.890625 -0.921875 C 11.023438 -0.878906 11.164062 -0.859375 11.3125 -0.859375 L 11.375 -0.859375 L 11.375 0 L 10.859375 0 C 10.378906 0 9.957031 -0.015625 9.59375 -0.046875 C 9.238281 -0.0859375 8.925781 -0.160156 8.65625 -0.265625 C 8.394531 -0.378906 8.164062 -0.53125 7.96875 -0.71875 C 7.769531 -0.90625 7.585938 -1.144531 7.421875 -1.4375 L 5.53125 -4.96875 L 4.46875 -4.96875 L 4.46875 -1.8125 C 4.46875 -1.601562 4.488281 -1.429688 4.53125 -1.296875 C 4.570312 -1.171875 4.628906 -1.078125 4.703125 -1.015625 C 4.785156 -0.953125 4.875 -0.910156 4.96875 -0.890625 C 5.070312 -0.867188 5.175781 -0.859375 5.28125 -0.859375 L 5.96875 -0.859375 L 5.96875 0 L 0.453125 0 Z M 4.46875 -5.890625 L 5.359375 -5.890625 C 5.734375 -5.890625 6.039062 -5.9375 6.28125 -6.03125 C 6.53125 -6.132812 6.726562 -6.285156 6.875 -6.484375 C 7.03125 -6.679688 7.140625 -6.925781 7.203125 -7.21875 C 7.265625 -7.507812 7.296875 -7.851562 7.296875 -8.25 C 7.296875 -8.65625 7.257812 -9 7.1875 -9.28125 C 7.113281 -9.5625 7 -9.789062 6.84375 -9.96875 C 6.6875 -10.144531 6.484375 -10.273438 6.234375 -10.359375 C 5.984375 -10.441406 5.679688 -10.484375 5.328125 -10.484375 L 4.46875 -10.484375 Z M 4.46875 -5.890625 "/></g></g></g><g fill="#000000" fill-opacity="1"><g transform="translate(158.283191, 271.647873)"><g><path d="M 4.484375 -0.984375 L 7.6875 -0.984375 C 7.84375 -0.984375 7.976562 -1.007812 8.09375 -1.0625 C 8.207031 -1.125 8.304688 -1.207031 8.390625 -1.3125 C 8.472656 -1.425781 8.539062 -1.554688 8.59375 -1.703125 C 8.644531 -1.859375 8.679688 -2.023438 8.703125 -2.203125 L 8.828125 -2.953125 L 9.9375 -2.953125 L 9.828125 0 L 0.453125 0 L 0.453125 -0.859375 L 1.125 -0.859375 C 1.238281 -0.859375 1.34375 -0.867188 1.4375 -0.890625 C 1.539062 -0.910156 1.628906 -0.953125 1.703125 -1.015625 C 1.773438 -1.078125 1.832031 -1.171875 1.875 -1.296875 C 1.914062 -1.429688 1.9375 -1.601562 1.9375 -1.8125 L 1.9375 -9.546875 C 1.9375 -9.773438 1.914062 -9.957031 1.875 -10.09375 C 1.832031 -10.226562 1.773438 -10.332031 1.703125 -10.40625 C 1.628906 -10.476562 1.539062 -10.523438 1.4375 -10.546875 C 1.34375 -10.566406 1.238281 -10.578125 1.125 -10.578125 L 0.453125 -10.578125 L 0.453125 -11.421875 L 9.328125 -11.421875 L 9.390625 -8.484375 L 8.28125 -8.484375 L 8.203125 -9.234375 C 8.160156 -9.628906 8.0625 -9.929688 7.90625 -10.140625 C 7.75 -10.347656 7.503906 -10.453125 7.171875 -10.453125 L 4.484375 -10.453125 L 4.484375 -6.453125 L 8.28125 -6.453125 L 8.28125 -5.484375 L 4.484375 -5.484375 Z M 4.484375 -0.984375 "/></g></g></g><g fill="#000000" fill-opacity="1"><g transform="translate(173.637952, 271.647873)"><g><path d="M 9.734375 -8.03125 C 9.734375 -7.550781 9.648438 -7.085938 9.484375 -6.640625 C 9.316406 -6.203125 9.046875 -5.8125 8.671875 -5.46875 C 8.296875 -5.132812 7.804688 -4.867188 7.203125 -4.671875 C 6.609375 -4.472656 5.878906 -4.375 5.015625 -4.375 L 4.46875 -4.375 L 4.46875 -1.8125 C 4.46875 -1.601562 4.488281 -1.429688 4.53125 -1.296875 C 4.582031 -1.171875 4.644531 -1.078125 4.71875 -1.015625 C 4.800781 -0.953125 4.894531 -0.910156 5 -0.890625 C 5.101562 -0.867188 5.207031 -0.859375 5.3125 -0.859375 L 6.296875 -0.859375 L 6.296875 0 L 0.453125 0 L 0.453125 -0.859375 L 1.125 -0.859375 C 1.238281 -0.859375 1.34375 -0.867188 1.4375 -0.890625 C 1.539062 -0.910156 1.628906 -0.957031 1.703125 -1.03125 C 1.773438 -1.101562 1.832031 -1.207031 1.875 -1.34375 C 1.914062 -1.476562 1.9375 -1.660156 1.9375 -1.890625 L 1.9375 -9.609375 C 1.9375 -9.816406 1.914062 -9.984375 1.875 -10.109375 C 1.832031 -10.242188 1.773438 -10.34375 1.703125 -10.40625 C 1.628906 -10.476562 1.539062 -10.523438 1.4375 -10.546875 C 1.34375 -10.566406 1.238281 -10.578125 1.125 -10.578125 L 0.453125 -10.578125 L 0.453125 -11.421875 L 5.359375 -11.421875 C 6.097656 -11.421875 6.738281 -11.34375 7.28125 -11.1875 C 7.832031 -11.03125 8.289062 -10.804688 8.65625 -10.515625 C 9.019531 -10.222656 9.289062 -9.867188 9.46875 -9.453125 C 9.644531 -9.035156 9.734375 -8.5625 9.734375 -8.03125 Z M 4.46875 -5.296875 L 4.859375 -5.296875 C 5.253906 -5.296875 5.585938 -5.34375 5.859375 -5.4375 C 6.140625 -5.539062 6.363281 -5.695312 6.53125 -5.90625 C 6.707031 -6.125 6.835938 -6.398438 6.921875 -6.734375 C 7.003906 -7.078125 7.046875 -7.488281 7.046875 -7.96875 C 7.046875 -8.394531 7.007812 -8.765625 6.9375 -9.078125 C 6.863281 -9.398438 6.75 -9.660156 6.59375 -9.859375 C 6.445312 -10.066406 6.25 -10.222656 6 -10.328125 C 5.75 -10.429688 5.445312 -10.484375 5.09375 -10.484375 L 4.46875 -10.484375 Z M 4.46875 -5.296875 "/></g></g></g><g fill="#000000" fill-opacity="1"><g transform="translate(188.758394, 271.647873)"><g><path d="M 11.71875 -5.734375 C 11.71875 -4.847656 11.597656 -4.039062 11.359375 -3.3125 C 11.117188 -2.59375 10.769531 -1.972656 10.3125 -1.453125 C 9.851562 -0.941406 9.285156 -0.546875 8.609375 -0.265625 C 7.941406 0.015625 7.175781 0.15625 6.3125 0.15625 C 5.394531 0.15625 4.597656 0.015625 3.921875 -0.265625 C 3.242188 -0.546875 2.679688 -0.941406 2.234375 -1.453125 C 1.785156 -1.972656 1.445312 -2.597656 1.21875 -3.328125 C 1 -4.054688 0.890625 -4.863281 0.890625 -5.75 C 0.890625 -6.632812 1 -7.4375 1.21875 -8.15625 C 1.445312 -8.875 1.785156 -9.488281 2.234375 -10 C 2.679688 -10.507812 3.242188 -10.90625 3.921875 -11.1875 C 4.609375 -11.46875 5.410156 -11.609375 6.328125 -11.609375 C 7.191406 -11.609375 7.957031 -11.46875 8.625 -11.1875 C 9.289062 -10.90625 9.851562 -10.507812 10.3125 -10 C 10.769531 -9.488281 11.117188 -8.867188 11.359375 -8.140625 C 11.597656 -7.421875 11.71875 -6.617188 11.71875 -5.734375 Z M 3.578125 -5.734375 C 3.578125 -4.960938 3.625 -4.273438 3.71875 -3.671875 C 3.820312 -3.078125 3.984375 -2.570312 4.203125 -2.15625 C 4.421875 -1.75 4.703125 -1.4375 5.046875 -1.21875 C 5.390625 -1 5.8125 -0.890625 6.3125 -0.890625 C 6.8125 -0.890625 7.234375 -1 7.578125 -1.21875 C 7.921875 -1.4375 8.195312 -1.75 8.40625 -2.15625 C 8.625 -2.570312 8.78125 -3.078125 8.875 -3.671875 C 8.976562 -4.273438 9.03125 -4.960938 9.03125 -5.734375 C 9.03125 -6.492188 8.976562 -7.171875 8.875 -7.765625 C 8.78125 -8.367188 8.625 -8.878906 8.40625 -9.296875 C 8.195312 -9.710938 7.921875 -10.023438 7.578125 -10.234375 C 7.234375 -10.453125 6.816406 -10.5625 6.328125 -10.5625 C 5.828125 -10.5625 5.398438 -10.453125 5.046875 -10.234375 C 4.703125 -10.023438 4.421875 -9.710938 4.203125 -9.296875 C 3.984375 -8.878906 3.820312 -8.367188 3.71875 -7.765625 C 3.625 -7.171875 3.578125 -6.492188 3.578125 -5.734375 Z M 3.578125 -5.734375 "/></g></g></g><g fill="#000000" fill-opacity="1"><g transform="translate(206.261061, 271.647873)"><g><path d="M 0.453125 -0.859375 L 1.125 -0.859375 C 1.226562 -0.859375 1.328125 -0.867188 1.421875 -0.890625 C 1.523438 -0.910156 1.613281 -0.953125 1.6875 -1.015625 C 1.769531 -1.078125 1.832031 -1.171875 1.875 -1.296875 C 1.914062 -1.429688 1.9375 -1.601562 1.9375 -1.8125 L 1.9375 -9.609375 C 1.9375 -9.816406 1.914062 -9.984375 1.875 -10.109375 C 1.832031 -10.242188 1.769531 -10.34375 1.6875 -10.40625 C 1.613281 -10.476562 1.523438 -10.523438 1.421875 -10.546875 C 1.328125 -10.566406 1.226562 -10.578125 1.125 -10.578125 L 0.453125 -10.578125 L 0.453125 -11.421875 L 5.609375 -11.421875 C 7.117188 -11.421875 8.222656 -11.164062 8.921875 -10.65625 C 9.628906 -10.15625 9.984375 -9.425781 9.984375 -8.46875 C 9.984375 -8.039062 9.921875 -7.660156 9.796875 -7.328125 C 9.671875 -7.003906 9.503906 -6.71875 9.296875 -6.46875 C 9.097656 -6.226562 8.867188 -6.023438 8.609375 -5.859375 C 8.347656 -5.691406 8.082031 -5.550781 7.8125 -5.4375 L 9.71875 -2.15625 C 9.851562 -1.925781 9.984375 -1.726562 10.109375 -1.5625 C 10.234375 -1.40625 10.359375 -1.269531 10.484375 -1.15625 C 10.617188 -1.050781 10.753906 -0.972656 10.890625 -0.921875 C 11.023438 -0.878906 11.164062 -0.859375 11.3125 -0.859375 L 11.375 -0.859375 L 11.375 0 L 10.859375 0 C 10.378906 0 9.957031 -0.015625 9.59375 -0.046875 C 9.238281 -0.0859375 8.925781 -0.160156 8.65625 -0.265625 C 8.394531 -0.378906 8.164062 -0.53125 7.96875 -0.71875 C 7.769531 -0.90625 7.585938 -1.144531 7.421875 -1.4375 L 5.53125 -4.96875 L 4.46875 -4.96875 L 4.46875 -1.8125 C 4.46875 -1.601562 4.488281 -1.429688 4.53125 -1.296875 C 4.570312 -1.171875 4.628906 -1.078125 4.703125 -1.015625 C 4.785156 -0.953125 4.875 -0.910156 4.96875 -0.890625 C 5.070312 -0.867188 5.175781 -0.859375 5.28125 -0.859375 L 5.96875 -0.859375 L 5.96875 0 L 0.453125 0 Z M 4.46875 -5.890625 L 5.359375 -5.890625 C 5.734375 -5.890625 6.039062 -5.9375 6.28125 -6.03125 C 6.53125 -6.132812 6.726562 -6.285156 6.875 -6.484375 C 7.03125 -6.679688 7.140625 -6.925781 7.203125 -7.21875 C 7.265625 -7.507812 7.296875 -7.851562 7.296875 -8.25 C 7.296875 -8.65625 7.257812 -9 7.1875 -9.28125 C 7.113281 -9.5625 7 -9.789062 6.84375 -9.96875 C 6.6875 -10.144531 6.484375 -10.273438 6.234375 -10.359375 C 5.984375 -10.441406 5.679688 -10.484375 5.328125 -10.484375 L 4.46875 -10.484375 Z M 4.46875 -5.890625 "/></g></g></g><g fill="#000000" fill-opacity="1"><g transform="translate(222.482791, 271.647873)"><g><path d="M 6.5 -1.890625 C 6.5 -1.660156 6.519531 -1.476562 6.5625 -1.34375 C 6.601562 -1.207031 6.660156 -1.101562 6.734375 -1.03125 C 6.804688 -0.957031 6.890625 -0.910156 6.984375 -0.890625 C 7.085938 -0.867188 7.195312 -0.859375 7.3125 -0.859375 L 7.984375 -0.859375 L 7.984375 0 L 2.46875 0 L 2.46875 -0.859375 L 3.140625 -0.859375 C 3.253906 -0.859375 3.359375 -0.867188 3.453125 -0.890625 C 3.554688 -0.910156 3.644531 -0.957031 3.71875 -1.03125 C 3.789062 -1.101562 3.847656 -1.207031 3.890625 -1.34375 C 3.929688 -1.476562 3.953125 -1.660156 3.953125 -1.890625 L 3.953125 -10.453125 L 2.671875 -10.453125 C 2.429688 -10.453125 2.226562 -10.425781 2.0625 -10.375 C 1.90625 -10.320312 1.773438 -10.242188 1.671875 -10.140625 C 1.578125 -10.046875 1.503906 -9.925781 1.453125 -9.78125 C 1.398438 -9.644531 1.363281 -9.488281 1.34375 -9.3125 L 1.234375 -8.328125 L 0.15625 -8.328125 L 0.25 -11.421875 L 10.21875 -11.421875 L 10.296875 -8.328125 L 9.21875 -8.328125 L 9.109375 -9.3125 C 9.085938 -9.488281 9.050781 -9.644531 9 -9.78125 C 8.945312 -9.925781 8.867188 -10.046875 8.765625 -10.140625 C 8.671875 -10.242188 8.539062 -10.320312 8.375 -10.375 C 8.21875 -10.425781 8.019531 -10.453125 7.78125 -10.453125 L 6.5 -10.453125 Z M 6.5 -1.890625 "/></g></g></g></svg>